<?xml version="1.0" encoding="UTF-8"?>
<svg version="1.1" xmlns="http://www.w3.org/2000/svg" width="257" height="65">
<path d="M0 0 C4.62 0 9.24 0 14 0 C15.32 4.95 16.64 9.9 18 15 C19.27499705 10.4386325 19.27499705 10.4386325 20.54272461 5.87524414 C21.88888889 1.11111111 21.88888889 1.11111111 23 0 C27.66845228 -0.14426614 32.32865953 -0.04208415 37 0 C37.495 7.92 37.495 7.92 38 16 C39.65 14.02 41.3 12.04 43 10 C48.08744072 7.27881078 53.51743656 7.59603724 59 9 C62.05689458 10.75909829 64.39661704 12.79323408 66 16 C66.42054103 20.56933999 66.56125534 24.68104995 64.75 28.9375 C61.63060609 32.61392853 59.48505268 34.10386319 54.6875 34.8125 C50.35968466 35.13939574 47.02825805 34.78172952 43 33 C41.02980322 31.11958434 39.60026007 29.23066555 38 27 C37.67 29.31 37.34 31.62 37 34 C34.03 34 31.06 34 28 34 C27.67 29.05 27.34 24.1 27 19 C25.68 23.95 24.36 28.9 23 34 C20.03 34 17.06 34 14 34 C12.68 29.71 11.36 25.42 10 21 C9.34 25.29 8.68 29.58 8 34 C5.36 34 2.72 34 0 34 C0 22.78 0 11.56 0 0 Z M50 16 C47.8297208 17.7587364 47.8297208 17.7587364 47.76953125 19.91015625 C47.46245968 23.76685951 47.46245968 23.76685951 49 27 C50.99958364 27.04080783 53.00045254 27.04254356 55 27 C55.22174933 25.54364629 55.42698698 24.08477044 55.625 22.625 C55.74101563 21.81289063 55.85703125 21.00078125 55.9765625 20.1640625 C55.98429687 19.44992188 55.99203125 18.73578125 56 18 C55.34 17.34 54.68 16.68 54 16 C52.68 16 51.36 16 50 16 Z " fill="#E21F29" transform="translate(37,14)"/>
<path d="M0 0 C3.54855207 1.90570389 5.85195707 3.6778103 8.375 6.8125 C8.375 8.1325 8.375 9.4525 8.375 10.8125 C6.04813547 11.97593227 4.52778587 12.01145988 1.9375 12.0625 C1.15503906 12.08828125 0.37257813 12.1140625 -0.43359375 12.140625 C-3.13903683 11.73553192 -3.77335539 10.73064013 -5.625 8.8125 C-8.77421909 9.04533149 -8.77421909 9.04533149 -11.625 9.8125 C-11.65205729 11.58324917 -11.67142195 13.35411711 -11.6875 15.125 C-11.69910156 16.11113281 -11.71070313 17.09726562 -11.72265625 18.11328125 C-11.74829862 20.91213849 -11.74829862 20.91213849 -10.625 23.8125 C-8.27966049 24.58206136 -8.27966049 24.58206136 -5.625 24.8125 C-3.6070846 23.29906345 -2.75030066 22.06310133 -1.625 19.8125 C6.125 20.6875 6.125 20.6875 8.375 21.8125 C8.10790484 25.64086401 7.60614937 27.52191223 5.1875 30.5625 C0.63161962 34.20720431 -3.68510267 35.31173995 -9.5390625 35.12109375 C-15.05727317 34.30472925 -18.65870144 32.05134431 -22.0625 27.6875 C-24.79444185 22.02934488 -25.00150396 16.10917414 -24 10 C-21.81986625 4.94605357 -19.05823102 2.58219814 -14.25 0 C-8.9325662 -1.74191797 -5.3174338 -1.74191797 0 0 Z " fill="#E2202A" transform="translate(26.625,14.1875)"/>
<path d="M0 0 C3.3 0 6.6 0 10 0 C11.32 3.63 12.64 7.26 14 11 C15.32 7.37 16.64 3.74 18 0 C21.3 0 24.6 0 28 0 C26.67164053 6.73035464 24.73231552 12.88556495 22.1875 19.25 C21.85685547 20.12140625 21.52621094 20.9928125 21.18554688 21.890625 C19.1976341 26.89665486 17.33268149 30.56967348 13 34 C8.68645102 35.07838724 5.28598387 35.16890469 1 34 C1 31.69 1 29.38 1 27 C2.98 26.67 4.96 26.34 7 26 C7.48915389 20.42713963 5.84961675 16.76474297 3.5 11.875 C0 4.51013514 0 4.51013514 0 0 Z " fill="#1C1C1C" transform="translate(159,23)"/>
<path d="M0 0 C3.91924811 4.42495754 3 6.46394467 3 13 C-2.61 13 -8.22 13 -14 13 C-14 13.99 -14 14.98 -14 16 C-12.515 15.7525 -12.515 15.7525 -11 15.5 C-6.97267058 14.91525483 -3.06525377 14.92867976 1 15 C1.33 16.32 1.66 17.64 2 19 C-3.02986544 23.33127302 -6.21477447 24.39827846 -12.90625 24.2734375 C-16.55362275 23.79710151 -19.26270212 22.44117858 -22 20 C-24.94295701 15.30966227 -25.4797464 11.43599065 -24.640625 6.08203125 C-23.32739787 1.81404309 -20.38658428 -0.23372974 -16.625 -2.3125 C-10.39842322 -3.94327011 -5.59958991 -3.12284822 0 0 Z M-13 4 C-13.33 5.32 -13.66 6.64 -14 8 C-11.69 8 -9.38 8 -7 8 C-7.33 6.68 -7.66 5.36 -8 4 C-9.65 4 -11.3 4 -13 4 Z " fill="#1C1C1C" transform="translate(156,25)"/>
<path d="M0 0 C2.13676695 1.75390798 3.80775713 3.40067051 5.05078125 5.88671875 C5.47132228 10.45605874 5.61203659 14.5677687 3.80078125 18.82421875 C0.68138734 22.50064728 -1.46416607 23.99058194 -6.26171875 24.69921875 C-10.58953409 25.02611449 -13.9209607 24.66844827 -17.94921875 22.88671875 C-21.27022405 19.85449652 -23.15631226 17.28988032 -23.94921875 12.88671875 C-23.94921875 8.48004082 -23.41426476 6.50211957 -20.94921875 2.88671875 C-15.22960223 -2.5395841 -7.15143074 -4.08448449 0 0 Z M-10.94921875 5.88671875 C-13.11949795 7.64545515 -13.11949795 7.64545515 -13.1796875 9.796875 C-13.48675907 13.65357826 -13.48675907 13.65357826 -11.94921875 16.88671875 C-9.94963511 16.92752658 -7.94876621 16.92926231 -5.94921875 16.88671875 C-5.72746942 15.43036504 -5.52223177 13.97148919 -5.32421875 12.51171875 C-5.20820312 11.69960938 -5.0921875 10.8875 -4.97265625 10.05078125 C-4.96492188 9.33664063 -4.9571875 8.6225 -4.94921875 7.88671875 C-5.60921875 7.22671875 -6.26921875 6.56671875 -6.94921875 5.88671875 C-8.26921875 5.88671875 -9.58921875 5.88671875 -10.94921875 5.88671875 Z " fill="#1C1C1C" transform="translate(97.94921875,24.11328125)"/>
<path d="M0 0 C2.19921875 1.38671875 2.19921875 1.38671875 4 4 C4.4959012 7.5944234 4.37531048 11.13045511 4.25 14.75 C4.23195312 15.73355469 4.21390625 16.71710937 4.1953125 17.73046875 C4.14825241 20.15406341 4.07651086 22.57715625 4 25 C0.7 25 -2.6 25 -6 25 C-6.33 19.72 -6.66 14.44 -7 9 C-8.32 8.67 -9.64 8.34 -11 8 C-11.33 13.61 -11.66 19.22 -12 25 C-15.3 25 -18.6 25 -22 25 C-22 16.75 -22 8.5 -22 0 C-19.03 0 -16.06 0 -13 0 C-12.67 0.66 -12.34 1.32 -12 2 C-11.319375 1.484375 -10.63875 0.96875 -9.9375 0.4375 C-6.09474677 -1.44299626 -4.08867758 -1.11509388 0 0 Z " fill="#1D1D1D" transform="translate(126,23)"/>
</svg>
