<svg version="1.1" id="Layer_1" xmlns:x="ns_extend;" xmlns:i="ns_ai;" xmlns:graph="ns_graphs;" xmlns="http://www.w3.org/2000/svg" xmlns:xlink="http://www.w3.org/1999/xlink" x="0px" y="0px" viewBox="0 0 173.3 53" style="enable-background:new 0 0 173.3 53;" xml:space="preserve">
 <style type="text/css">
  .st0{fill:#FFFFFF;}
	.st1{fill:#FF3407;}
 </style>
 <metadata>
  <sfw xmlns="ns_sfw;">
   <slices>
   </slices>
   <sliceSourceBounds bottomLeftOrigin="true" height="53" width="173.3" x="-28.6" y="-8.2">
   </sliceSourceBounds>
  </sfw>
 </metadata>
 <g>
  <path class="st0" d="M15,29.7c0,3.8-3.3,6.1-7.2,6.1c-1.8,0-3.4-0.4-4.8-1.3c-1.2-0.7-2-1.7-2.5-2.8c0,0-0.3-0.6-0.5-1.4L4.8,29
		l0,0c0.5,1.3,1.7,2,3,2C9,31,9.6,30.7,9.6,30c0-0.7-0.7-1-2.2-1.4l-2-0.6c-2.8-0.8-4.3-2.6-4.3-5.3c-0.1-3.3,3.2-5.5,6.7-5.5
		c1.3,0,2.6,0.3,3.8,1c0.8,0.4,1.4,1,1.9,1.7c0.4,0.5,0.7,1.3,0.8,2L9.9,23v0l0,0c-0.4-0.9-1-1.3-2-1.3c-0.8,0-1.4,0.3-1.4,0.9
		c0,0.6,0.7,0.9,2,1.3l1.9,0.5C13.4,25.2,15,27,15,29.7L15,29.7z M34.8,26.5c-0.1,5.1,4,9.4,9.5,9.3c5.5,0.1,9.6-4.2,9.5-9.3
		c0.1-5.1-4-9.4-9.5-9.3C38.8,17.1,34.7,21.4,34.8,26.5z M48.4,26.5c0,2.3-1.5,4.3-4.1,4.3c-2.6,0-4.1-1.9-4.1-4.3
		c0-2.3,1.5-4.3,4.1-4.3C46.9,22.2,48.4,24.2,48.4,26.5z M55.9,17.6v17.7h5.3v-5h3.5c3.8,0,6.3-2.7,6.3-6.4c0-3.7-2.5-6.3-6.3-6.3
		H55.9z M65.6,24c0,0.9-0.6,1.6-1.8,1.6h-2.6v-3.1h2.6C65.1,22.5,65.6,23.1,65.6,24L65.6,24z M27.5,17.6v6.7l-5.6,1.4v-8.2h-5.3
		v17.7h5.3v-4.8l5.6-1.4v6.3h5.3V17.6H27.5z M73.4,35.3h9c3.6,0,5.9-2.1,5.9-5.1c0-2.5-1.4-4-3-4.6c1-0.8,1.5-1.9,1.5-3.4
		c0-2.7-2.3-4.6-5.7-4.6h-7.7L73.4,35.3L73.4,35.3z M78.7,24.4v-2.4h1.6c0.9,0,1.4,0.5,1.4,1.2s-0.5,1.2-1.4,1.2L78.7,24.4
		L78.7,24.4z M78.7,30.9v-2.5h2.7c1,0,1.6,0.5,1.6,1.2c0,0.8-0.5,1.3-1.6,1.3H78.7z M107,26.5c-0.1,5.1,4,9.4,9.5,9.3
		c3.8,0,6.8-1.8,8.4-4.8l-4.8-2.3c-0.7,1.4-1.9,2.1-3.6,2.1c-2.6,0-4.1-2-4.1-4.3c0-2.3,1.5-4.3,4.1-4.3c1.6,0,2.9,0.7,3.6,2.1
		l4.8-2.3c-1.6-3-4.6-4.8-8.4-4.8C111,17.1,106.9,21.3,107,26.5L107,26.5z M126.5,35.3h5.3V28h1.7l3.9,7.3h6.2l-5.3-9.5l4.8-8.2
		h-5.9l-5.4,9.3v-9.3h-5.3V35.3z M107.6,35.3H102l-1-2.8l-6.4,1.7l-0.4,1.1h-5.6l7.3-17.7h4.4L107.6,35.3L107.6,35.3z M99.4,28.2
		l-1.3-3.4L96.5,29L99.4,28.2L99.4,28.2z">
  </path>
  <path class="st1" d="M169.6,29.1h-0.9l1.7-1.4c1.2-1,1.7-2.5,1.2-4c-0.5-1.5-1.8-2.4-3.4-2.4h-14.9c-0.3,0-0.4-0.3-0.2-0.5l9.9-9.7
		c0.1-0.1,0.3,0,0.3,0.2l-3.4,8h4.4L172.4,0h-4l-19.6,19.3c-1.1,1.1-1.4,2.7-0.7,4.1c0.6,1.3,1.9,2.1,3.4,2.1h14.5
		c0.3,0,0.4,0.4,0.2,0.6l-3.4,2.8c-0.5,0.4-0.9,0.9-1.1,1.5l-1.3,2.9h7.1c0.3,0,0.4,0.4,0.2,0.6l-14.6,12c-0.1,0.1-0.3,0-0.2-0.2
		l5.3-12.4l0.5-1.1l2-4.7h-4.4L145.3,53h5.4l21.2-17.5c1.2-1,1.6-2.6,1.1-4C172.5,30,171.1,29.1,169.6,29.1L169.6,29.1z">
  </path>
 </g>
</svg>